<svg xmlns="http://www.w3.org/2000/svg" viewBox="0 0 48 48" fill="none">
  <rect width="48" height="48" rx="10" fill="#FF0000"/>
  <path d="M36.5 18.5C36.5 18.5 36.2 16.6 35.4 15.8C34.4 14.7 33.3 14.7 32.8 14.6C28.5 14.3 24 14.3 24 14.3C24 14.3 19.5 14.3 15.2 14.6C14.7 14.7 13.6 14.7 12.6 15.8C11.8 16.6 11.5 18.5 11.5 18.5C11.5 18.5 11.2 20.8 11.2 23.1V25.3C11.2 27.6 11.5 29.9 11.5 29.9C11.5 29.9 11.8 31.8 12.6 32.6C13.6 33.7 14.9 33.7 15.5 33.8C17.8 34 24 34.1 24 34.1C24 34.1 28.5 34.1 32.8 33.8C33.3 33.7 34.4 33.7 35.4 32.6C36.2 31.8 36.5 29.9 36.5 29.9C36.5 29.9 36.8 27.6 36.8 25.3V23.1C36.8 20.8 36.5 18.5 36.5 18.5Z" fill="white"/>
  <path d="M21.5 28.5L21.5 20L29 24.25L21.5 28.5Z" fill="#FF0000"/>
</svg>
